<svg width="24" height="20" viewBox="0 0 24 20" fill="none" xmlns="http://www.w3.org/2000/svg">
<path d="M0 2.5C0 1.11929 1.11929 0 2.5 0H21.502C22.8827 0 24.002 1.11929 24.002 2.5V13.9198C24.002 15.3005 22.8827 16.4198 21.502 16.4198H16.8014L12.001 20L7.20059 16.4198H2.5C1.11929 16.4198 0 15.3005 0 13.9198V2.5Z" fill="#D9D9D9"/>
<path d="M0 2.5C0 1.11929 1.11929 0 2.5 0H21.502C22.8827 0 24.002 1.11929 24.002 2.5V13.9198C24.002 15.3005 22.8827 16.4198 21.502 16.4198H16.8014L12.001 20L7.20059 16.4198H2.5C1.11929 16.4198 0 15.3005 0 13.9198V2.5Z" fill="url(#paint0_linear_3236_225)"/>
<path d="M3.66406 3.08733H20.3391V13.0873H17.3562C16.1821 13.0873 15.0455 13.5005 14.1455 14.2544L12.0016 16.0503L9.8577 14.2544C8.95768 13.5005 7.82105 13.0873 6.64697 13.0873H3.66406V3.08733Z" fill="white"/>
<defs>
<linearGradient id="paint0_linear_3236_225" x1="-28.2023" y1="21.4043" x2="-13.071" y2="42.805" gradientUnits="userSpaceOnUse">
<stop stop-color="#FFB800"/>
<stop offset="0.232579" stop-color="#B4E64A"/>
<stop offset="0.511397" stop-color="#87DAC6"/>
<stop offset="0.75" stop-color="#FF68C3"/>
<stop offset="1" stop-color="#005CE7"/>
</linearGradient>
</defs>
</svg>
