<svg width="18" height="17" viewBox="0 0 18 17" fill="none" xmlns="http://www.w3.org/2000/svg">
<path d="M0.194737 3.0486C0.276215 2.07867 0.994299 1.29139 1.95278 1.1219C3.77849 0.799055 6.79429 0.333496 9.0038 0.333496C11.2117 0.333496 14.2246 0.798366 16.0508 1.12118C17.0112 1.29098 17.73 2.0811 17.8098 3.05322C17.8993 4.14385 17.9959 5.6107 17.9999 6.9014C18.0041 8.27349 17.9051 9.89709 17.8119 11.1121C17.7309 12.1686 16.9021 13.0041 15.849 13.1209L13.2435 13.41C11.7695 13.5735 10.4334 14.3528 9.56545 15.5554L9.0038 16.3335L8.43464 15.5481C7.56644 14.3499 6.23297 13.5738 4.76238 13.4106L2.15103 13.1209C1.09791 13.0041 0.269139 12.1686 0.188113 11.1121C0.0949308 9.89709 -0.00409407 8.27349 0.000130595 6.9014C0.00411027 5.60888 0.103079 4.1397 0.194737 3.0486Z" fill="#A9A9A9"/>
<path d="M2.82098 3.5007C2.82101 3.50038 2.82074 3.50021 2.82106 3.50016C2.83256 3.49815 6.64636 2.8335 8.99895 2.8335C11.3511 2.8335 15.175 3.49792 15.1879 3.50016C15.1882 3.50022 15.1879 3.50041 15.188 3.50077C15.3956 5.74514 15.4109 8.00315 15.2338 10.2501L15.1879 10.8331C15.1878 10.8333 15.1876 10.8335 15.1874 10.8335H12.6603C11.1789 10.8335 9.79935 11.5871 8.99886 12.8335C8.19837 11.5871 6.81878 10.8335 5.33745 10.8335H2.82137C2.82113 10.8335 2.82092 10.8333 2.8209 10.8331L2.7444 9.83979C2.58179 7.72867 2.60742 5.60727 2.82098 3.5007Z" fill="white"/>
</svg>
